<svg width="304" height="68" viewBox="0 0 304 68" fill="none" xmlns="http://www.w3.org/2000/svg">
<path fill-rule="evenodd" clip-rule="evenodd" d="M4 0C1.79086 0 0 1.79086 0 4V64C0 66.2091 1.79086 68 4 68H300C302.209 68 304 66.2091 304 64V4C304 1.79086 302.209 0 300 0H4Z" fill="#5E20A4"/>
<path fill-rule="evenodd" clip-rule="evenodd" d="M52.5 33.375C52.5 33.75 52.2206 34 51.875 34H47.5V37.75H51.875C52.2206 37.75 52.5 38.0625 52.5 38.375C52.5 38.75 52.2206 39 51.875 39H47.5V42.75H51.875C52.2206 42.75 52.5 43.0625 52.5 43.375C52.5 43.75 52.2206 44 51.875 44H47.5V45.875C47.5 46.25 47.2206 46.5 46.875 46.5C46.53 46.5 46.25 46.25 46.25 45.875V44H40.625V45.875C40.625 46.25 40.3456 46.5 40 46.5C39.655 46.5 39.375 46.25 39.375 45.875V44H33.75V45.875C33.75 46.25 33.4706 46.5 33.125 46.5C32.78 46.5 32.5 46.25 32.5 45.875V44H28.125C27.78 44 27.5 43.75 27.5 43.375C27.5 43.0625 27.78 42.75 28.125 42.75H32.5V39H28.125C27.78 39 27.5 38.75 27.5 38.375C27.5 38.0625 27.78 37.75 28.125 37.75H32.5V34H28.125C27.78 34 27.5 33.75 27.5 33.375C27.5 33.0625 27.78 32.75 28.125 32.75H32.5V30.875C32.5 30.5625 32.78 30.25 33.125 30.25C33.4706 30.25 33.75 30.5625 33.75 30.875V32.75H39.375V30.875C39.375 30.5625 39.655 30.25 40 30.25C40.3456 30.25 40.625 30.5625 40.625 30.875V32.75H46.25V30.875C46.25 30.5625 46.53 30.25 46.875 30.25C47.2206 30.25 47.5 30.5625 47.5 30.875V32.75H51.875C52.2206 32.75 52.5 33.0625 52.5 33.375ZM46.25 37.75H40.625V34H46.25V37.75ZM46.25 42.75H40.625V39H46.25V42.75ZM39.375 42.75H33.75V39H39.375V42.75ZM39.375 37.75H33.75V34H39.375V37.75Z" fill="white"/>
<path fill-rule="evenodd" clip-rule="evenodd" d="M50 21.5H54.375C54.7206 21.5 55 21.8125 55 22.125V48.375C55 48.75 54.7206 49 54.375 49H25.625C25.28 49 25 48.75 25 48.375V22.125C25 21.8125 25.28 21.5 25.625 21.5H30V19.625C30 19.3125 30.28 19 30.625 19H34.375C34.7206 19 35 19.3125 35 19.625V21.5H45V19.625C45 19.3125 45.28 19 45.625 19H49.375C49.7206 19 50 19.3125 50 19.625V21.5ZM53.75 29V47.75H26.25V29H53.75ZM30 24.625V22.75H26.25V27.75H53.75V22.75H50V24.625C50 25 49.7206 25.25 49.375 25.25H45.625C45.28 25.25 45 25 45 24.625V22.75H35V24.625C35 25 34.7206 25.25 34.375 25.25H30.625C30.28 25.25 30 25 30 24.625ZM33.75 24H31.25V20.25H33.75V24ZM48.75 24H46.25V20.25H48.75V24Z" fill="white"/>
<path d="M86.7727 22C86.3409 19.6136 84.4318 18.2045 82.0909 18.2045C79.1136 18.2045 76.9545 20.5 76.9545 24.1818C76.9545 27.8636 79.1136 30.1591 82.0909 30.1591C84.4318 30.1591 86.3409 28.75 86.7727 26.3636H85.3636C85.0227 27.9773 83.6364 28.8409 82.0909 28.8409C79.9773 28.8409 78.3182 27.2045 78.3182 24.1818C78.3182 21.1591 79.9773 19.5227 82.0909 19.5227C83.6364 19.5227 85.0227 20.3864 85.3636 22H86.7727ZM88.8679 30H90.2088V24.4773C90.2088 23.2955 91.1406 22.4318 92.4134 22.4318C92.7713 22.4318 93.1406 22.5 93.2315 22.5227V21.1591C93.0781 21.1477 92.7259 21.1364 92.527 21.1364C91.4815 21.1364 90.5724 21.7273 90.2543 22.5909H90.1634V21.2727H88.8679V30ZM98.2145 30.1818C99.9872 30.1818 101.283 29.2955 101.692 27.9773L100.396 27.6136C100.055 28.5227 99.2656 28.9773 98.2145 28.9773C96.6406 28.9773 95.5554 27.9602 95.4929 26.0909H101.828V25.5227C101.828 22.2727 99.8963 21.1591 98.0781 21.1591C95.7145 21.1591 94.1463 23.0227 94.1463 25.7045C94.1463 28.3864 95.6918 30.1818 98.2145 30.1818ZM95.4929 24.9318C95.5838 23.5739 96.544 22.3636 98.0781 22.3636C99.5327 22.3636 100.464 23.4545 100.464 24.9318H95.4929ZM106.436 30.2045C107.959 30.2045 108.754 29.3864 109.027 28.8182H109.095V30H110.436V24.25C110.436 21.4773 108.322 21.1591 107.209 21.1591C105.891 21.1591 104.391 21.6136 103.709 23.2045L104.982 23.6591C105.277 23.0227 105.976 22.3409 107.254 22.3409C108.487 22.3409 109.095 22.9943 109.095 24.1136V24.1591C109.095 24.8068 108.436 24.75 106.845 24.9545C105.226 25.1648 103.459 25.5227 103.459 27.5227C103.459 29.2273 104.777 30.2045 106.436 30.2045ZM106.641 29C105.572 29 104.8 28.5227 104.8 27.5909C104.8 26.5682 105.732 26.25 106.777 26.1136C107.345 26.0455 108.868 25.8864 109.095 25.6136V26.8409C109.095 27.9318 108.232 29 106.641 29ZM116.679 21.2727H114.815V19.1818H113.474V21.2727H112.156V22.4091H113.474V27.8636C113.474 29.3864 114.702 30.1136 115.838 30.1136C116.338 30.1136 116.656 30.0227 116.838 29.9545L116.565 28.75C116.452 28.7727 116.27 28.8182 115.974 28.8182C115.384 28.8182 114.815 28.6364 114.815 27.5V22.4091H116.679V21.2727ZM122.261 30.1818C124.034 30.1818 125.33 29.2955 125.739 27.9773L124.443 27.6136C124.102 28.5227 123.312 28.9773 122.261 28.9773C120.688 28.9773 119.602 27.9602 119.54 26.0909H125.875V25.5227C125.875 22.2727 123.943 21.1591 122.125 21.1591C119.761 21.1591 118.193 23.0227 118.193 25.7045C118.193 28.3864 119.739 30.1818 122.261 30.1818ZM119.54 24.9318C119.631 23.5739 120.591 22.3636 122.125 22.3636C123.58 22.3636 124.511 23.4545 124.511 24.9318H119.54ZM131.597 18.3636L135.801 25.2045V30H137.21V25.2045L141.415 18.3636H139.801L136.574 23.7955H136.438L133.21 18.3636H131.597ZM145.366 30.1818C147.73 30.1818 149.321 28.3864 149.321 25.6818C149.321 22.9545 147.73 21.1591 145.366 21.1591C143.003 21.1591 141.412 22.9545 141.412 25.6818C141.412 28.3864 143.003 30.1818 145.366 30.1818ZM145.366 28.9773C143.571 28.9773 142.753 27.4318 142.753 25.6818C142.753 23.9318 143.571 22.3636 145.366 22.3636C147.162 22.3636 147.98 23.9318 147.98 25.6818C147.98 27.4318 147.162 28.9773 145.366 28.9773ZM156.868 26.4318C156.868 28.0682 155.618 28.8182 154.618 28.8182C153.504 28.8182 152.709 28 152.709 26.7273V21.2727H151.368V26.8182C151.368 29.0455 152.55 30.1136 154.186 30.1136C155.504 30.1136 156.368 29.4091 156.777 28.5227H156.868V30H158.209V21.2727H156.868V26.4318ZM160.665 30H162.006V24.4773C162.006 23.2955 162.938 22.4318 164.21 22.4318C164.568 22.4318 164.938 22.5 165.028 22.5227V21.1591C164.875 21.1477 164.523 21.1364 164.324 21.1364C163.278 21.1364 162.369 21.7273 162.051 22.5909H161.96V21.2727H160.665V30ZM180.527 18.3636H179.141V27.5227H179.027L172.663 18.3636H171.3V30H172.709V20.8636H172.822L179.163 30H180.527V18.3636ZM185.733 30.2045C187.256 30.2045 188.051 29.3864 188.324 28.8182H188.392V30H189.733V24.25C189.733 21.4773 187.619 21.1591 186.506 21.1591C185.188 21.1591 183.688 21.6136 183.006 23.2045L184.278 23.6591C184.574 23.0227 185.273 22.3409 186.551 22.3409C187.784 22.3409 188.392 22.9943 188.392 24.1136V24.1591C188.392 24.8068 187.733 24.75 186.142 24.9545C184.523 25.1648 182.756 25.5227 182.756 27.5227C182.756 29.2273 184.074 30.2045 185.733 30.2045ZM185.938 29C184.869 29 184.097 28.5227 184.097 27.5909C184.097 26.5682 185.028 26.25 186.074 26.1136C186.642 26.0455 188.165 25.8864 188.392 25.6136V26.8409C188.392 27.9318 187.528 29 185.938 29ZM193.521 24.75C193.521 23.2273 194.464 22.3636 195.749 22.3636C196.993 22.3636 197.749 23.1761 197.749 24.5455V30H199.089V24.4545C199.089 22.2273 197.902 21.1591 196.135 21.1591C194.817 21.1591 193.999 21.75 193.589 22.6364H193.476V21.2727H192.18V30H193.521V24.75ZM202.881 24.75C202.881 23.2273 203.824 22.3636 205.108 22.3636C206.352 22.3636 207.108 23.1761 207.108 24.5455V30H208.449V24.4545C208.449 22.2273 207.261 21.1591 205.494 21.1591C204.176 21.1591 203.358 21.75 202.949 22.6364H202.835V21.2727H201.54V30H202.881V24.75ZM211.45 33.2727C212.661 33.2727 213.513 32.6307 214.018 31.2727L217.734 21.2955L216.268 21.2727L213.859 28.2273H213.768L211.359 21.2727H209.905L213.132 30.0455L212.882 30.7273C212.393 32.0568 211.791 32.1818 210.814 31.9318L210.473 33.1136C210.609 33.1818 210.996 33.2727 211.45 33.2727ZM230.554 21.2727H231.918C231.855 19.517 230.236 18.2045 227.986 18.2045C225.759 18.2045 224.009 19.5 224.009 21.4545C224.009 23.0227 225.145 23.9545 226.963 24.4773L228.395 24.8864C229.622 25.2273 230.713 25.6591 230.713 26.8182C230.713 28.0909 229.486 28.9318 227.872 28.9318C226.486 28.9318 225.259 28.3182 225.145 27H223.69C223.827 28.9091 225.372 30.2045 227.872 30.2045C230.554 30.2045 232.077 28.7273 232.077 26.8409C232.077 24.6591 230.009 23.9545 228.804 23.6364L227.622 23.3182C226.759 23.0909 225.372 22.6364 225.372 21.3864C225.372 20.2727 226.395 19.4545 227.94 19.4545C229.349 19.4545 230.418 20.125 230.554 21.2727ZM235.553 24.75C235.553 23.2273 236.524 22.3636 237.848 22.3636C239.109 22.3636 239.871 23.1591 239.871 24.5455V30H241.212V24.4545C241.212 22.2102 240.018 21.1591 238.234 21.1591C236.859 21.1591 236.075 21.733 235.666 22.6364H235.553V18.3636H234.212V30H235.553V24.75ZM246.233 30.2045C247.756 30.2045 248.551 29.3864 248.824 28.8182H248.892V30H250.233V24.25C250.233 21.4773 248.119 21.1591 247.006 21.1591C245.688 21.1591 244.188 21.6136 243.506 23.2045L244.778 23.6591C245.074 23.0227 245.773 22.3409 247.051 22.3409C248.284 22.3409 248.892 22.9943 248.892 24.1136V24.1591C248.892 24.8068 248.233 24.75 246.642 24.9545C245.023 25.1648 243.256 25.5227 243.256 27.5227C243.256 29.2273 244.574 30.2045 246.233 30.2045ZM246.438 29C245.369 29 244.597 28.5227 244.597 27.5909C244.597 26.5682 245.528 26.25 246.574 26.1136C247.142 26.0455 248.665 25.8864 248.892 25.6136V26.8409C248.892 27.9318 248.028 29 246.438 29ZM252.68 30H254.021V24.4773C254.021 23.2955 254.953 22.4318 256.226 22.4318C256.584 22.4318 256.953 22.5 257.044 22.5227V21.1591C256.891 21.1477 256.538 21.1364 256.339 21.1364C255.294 21.1364 254.385 21.7273 254.067 22.5909H253.976V21.2727H252.68V30ZM262.027 30.1818C263.8 30.1818 265.095 29.2955 265.504 27.9773L264.209 27.6136C263.868 28.5227 263.078 28.9773 262.027 28.9773C260.453 28.9773 259.368 27.9602 259.305 26.0909H265.641V25.5227C265.641 22.2727 263.709 21.1591 261.891 21.1591C259.527 21.1591 257.959 23.0227 257.959 25.7045C257.959 28.3864 259.504 30.1818 262.027 30.1818ZM259.305 24.9318C259.396 23.5739 260.357 22.3636 261.891 22.3636C263.345 22.3636 264.277 23.4545 264.277 24.9318H259.305Z" fill="white"/>
<path d="M76.5795 42.2102H79.3239V50H80.3807V42.2102H83.125V41.2727H76.5795V42.2102ZM85.6552 50.1534C86.7972 50.1534 87.3938 49.5398 87.5984 49.1136H87.6495V50H88.6552V45.6875C88.6552 43.608 87.07 43.3693 86.2347 43.3693C85.2461 43.3693 84.1211 43.7102 83.6097 44.9034L84.5643 45.2443C84.7859 44.767 85.31 44.2557 86.2688 44.2557C87.1935 44.2557 87.6495 44.7457 87.6495 45.5852V45.6193C87.6495 46.1051 87.1552 46.0625 85.962 46.2159C84.7475 46.3736 83.4222 46.642 83.4222 48.142C83.4222 49.4205 84.4109 50.1534 85.6552 50.1534ZM85.8086 49.25C85.0075 49.25 84.4279 48.892 84.4279 48.1932C84.4279 47.4261 85.1268 47.1875 85.9109 47.0852C86.337 47.0341 87.479 46.9148 87.6495 46.7102V47.6307C87.6495 48.4489 87.0018 49.25 85.8086 49.25ZM90.4908 50H91.4964V47.5497L92.1996 46.8977L94.6499 50H95.9283L92.9581 46.25L95.7237 43.4545H94.4794L91.6158 46.3693H91.4964V41.2727H90.4908V50ZM99.4929 50.1364C100.822 50.1364 101.794 49.4716 102.101 48.483L101.129 48.2102C100.874 48.892 100.281 49.233 99.4929 49.233C98.3125 49.233 97.4986 48.4702 97.4517 47.0682H102.203V46.642C102.203 44.2045 100.754 43.3693 99.3906 43.3693C97.6179 43.3693 96.4418 44.767 96.4418 46.7784C96.4418 48.7898 97.6009 50.1364 99.4929 50.1364ZM97.4517 46.1989C97.5199 45.1804 98.2401 44.2727 99.3906 44.2727C100.482 44.2727 101.18 45.0909 101.18 46.1989H97.4517ZM108.369 44.9205C108.054 43.9915 107.347 43.3693 106.051 43.3693C104.67 43.3693 103.648 44.1534 103.648 45.2614C103.648 46.1648 104.185 46.7699 105.386 47.0511L106.477 47.3068C107.138 47.4602 107.449 47.7756 107.449 48.2273C107.449 48.7898 106.852 49.25 105.915 49.25C105.092 49.25 104.577 48.8963 104.398 48.1932L103.443 48.4318C103.678 49.544 104.594 50.1364 105.932 50.1364C107.453 50.1364 108.489 49.3054 108.489 48.1761C108.489 47.2642 107.918 46.6889 106.75 46.4034L105.778 46.1648C105.003 45.973 104.653 45.7131 104.653 45.2102C104.653 44.6477 105.25 44.2386 106.051 44.2386C106.929 44.2386 107.291 44.7244 107.466 45.1761L108.369 44.9205ZM114.383 41.2727H113.377V50H114.383V41.2727ZM118.969 50.1364C120.299 50.1364 121.271 49.4716 121.577 48.483L120.606 48.2102C120.35 48.892 119.758 49.233 118.969 49.233C117.789 49.233 116.975 48.4702 116.928 47.0682H121.68V46.642C121.68 44.2045 120.231 43.3693 118.867 43.3693C117.094 43.3693 115.918 44.767 115.918 46.7784C115.918 48.7898 117.077 50.1364 118.969 50.1364ZM116.928 46.1989C116.996 45.1804 117.717 44.2727 118.867 44.2727C119.958 44.2727 120.657 45.0909 120.657 46.1989H116.928ZM127.846 44.9205C127.531 43.9915 126.823 43.3693 125.528 43.3693C124.147 43.3693 123.124 44.1534 123.124 45.2614C123.124 46.1648 123.661 46.7699 124.863 47.0511L125.954 47.3068C126.614 47.4602 126.925 47.7756 126.925 48.2273C126.925 48.7898 126.329 49.25 125.391 49.25C124.569 49.25 124.053 48.8963 123.874 48.1932L122.92 48.4318C123.154 49.544 124.07 50.1364 125.408 50.1364C126.93 50.1364 127.965 49.3054 127.965 48.1761C127.965 47.2642 127.394 46.6889 126.227 46.4034L125.255 46.1648C124.479 45.973 124.13 45.7131 124.13 45.2102C124.13 44.6477 124.727 44.2386 125.528 44.2386C126.406 44.2386 126.768 44.7244 126.942 45.1761L127.846 44.9205ZM134.115 44.9205C133.8 43.9915 133.093 43.3693 131.797 43.3693C130.417 43.3693 129.394 44.1534 129.394 45.2614C129.394 46.1648 129.931 46.7699 131.132 47.0511L132.223 47.3068C132.884 47.4602 133.195 47.7756 133.195 48.2273C133.195 48.7898 132.598 49.25 131.661 49.25C130.838 49.25 130.323 48.8963 130.144 48.1932L129.189 48.4318C129.424 49.544 130.34 50.1364 131.678 50.1364C133.199 50.1364 134.235 49.3054 134.235 48.1761C134.235 47.2642 133.664 46.6889 132.496 46.4034L131.525 46.1648C130.749 45.973 130.4 45.7131 130.4 45.2102C130.4 44.6477 130.996 44.2386 131.797 44.2386C132.675 44.2386 133.037 44.7244 133.212 45.1761L134.115 44.9205ZM141.97 43.4545H140.572V41.8864H139.567V43.4545H138.578V44.3068H139.567V48.3977C139.567 49.5398 140.487 50.0852 141.339 50.0852C141.714 50.0852 141.953 50.017 142.089 49.9659L141.885 49.0625C141.8 49.0795 141.663 49.1136 141.442 49.1136C140.999 49.1136 140.572 48.9773 140.572 48.125V44.3068H141.97V43.4545ZM144.629 46.0625C144.629 44.9205 145.358 44.2727 146.351 44.2727C147.297 44.2727 147.868 44.8693 147.868 45.9091V50H148.874V45.8409C148.874 44.1577 147.979 43.3693 146.641 43.3693C145.609 43.3693 145.021 43.7997 144.714 44.4773H144.629V41.2727H143.624V50H144.629V46.0625ZM152.64 50.1534C153.782 50.1534 154.378 49.5398 154.583 49.1136H154.634V50H155.64V45.6875C155.64 43.608 154.054 43.3693 153.219 43.3693C152.23 43.3693 151.105 43.7102 150.594 44.9034L151.549 45.2443C151.77 44.767 152.294 44.2557 153.253 44.2557C154.178 44.2557 154.634 44.7457 154.634 45.5852V45.6193C154.634 46.1051 154.14 46.0625 152.946 46.2159C151.732 46.3736 150.407 46.642 150.407 48.142C150.407 49.4205 151.395 50.1534 152.64 50.1534ZM152.793 49.25C151.992 49.25 151.412 48.892 151.412 48.1932C151.412 47.4261 152.111 47.1875 152.895 47.0852C153.321 47.0341 154.463 46.9148 154.634 46.7102V47.6307C154.634 48.4489 153.986 49.25 152.793 49.25ZM158.481 46.0625C158.481 44.9205 159.188 44.2727 160.151 44.2727C161.085 44.2727 161.651 44.8821 161.651 45.9091V50H162.657V45.8409C162.657 44.1705 161.766 43.3693 160.441 43.3693C159.452 43.3693 158.839 43.8125 158.532 44.4773H158.447V43.4545H157.475V50H158.481V46.0625ZM170.58 50.1193C172.242 50.1193 173.461 48.892 173.461 47.2216C173.461 45.5298 172.284 44.2898 170.682 44.2898C170.094 44.2898 169.523 44.4986 169.165 44.7841H169.114L169.421 42.2102H173.069V41.2727H168.534L168.006 45.5682L168.995 45.6875C169.357 45.4276 169.975 45.2401 170.512 45.2443C171.624 45.2528 172.438 46.0966 172.438 47.2386C172.438 48.3594 171.654 49.1818 170.58 49.1818C169.685 49.1818 168.973 48.6065 168.892 47.8182H167.87C167.934 49.1477 169.08 50.1193 170.58 50.1193ZM178.545 50H179.551V45.9091C179.551 44.9503 180.25 44.2727 181.034 44.2727C181.797 44.2727 182.33 44.7713 182.33 45.517V50H183.352V45.7386C183.352 44.8949 183.881 44.2727 184.801 44.2727C185.517 44.2727 186.131 44.652 186.131 45.6193V50H187.136V45.6193C187.136 44.081 186.31 43.3693 185.142 43.3693C184.205 43.3693 183.518 43.7997 183.182 44.4773H183.114C182.79 43.7784 182.219 43.3693 181.358 43.3693C180.506 43.3693 179.875 43.7784 179.602 44.4773H179.517V43.4545H178.545V50ZM188.975 50H189.981V43.4545H188.975V50ZM189.487 42.3636C189.879 42.3636 190.202 42.0568 190.202 41.6818C190.202 41.3068 189.879 41 189.487 41C189.094 41 188.771 41.3068 188.771 41.6818C188.771 42.0568 189.094 42.3636 189.487 42.3636ZM192.828 46.0625C192.828 44.9205 193.536 44.2727 194.499 44.2727C195.432 44.2727 195.999 44.8821 195.999 45.9091V50H197.005V45.8409C197.005 44.1705 196.114 43.3693 194.789 43.3693C193.8 43.3693 193.186 43.8125 192.88 44.4773H192.794V43.4545H191.823V50H192.828V46.0625ZM202.967 47.3239C202.967 48.5511 202.03 49.1136 201.28 49.1136C200.445 49.1136 199.848 48.5 199.848 47.5455V43.4545H198.842V47.6136C198.842 49.2841 199.729 50.0852 200.956 50.0852C201.945 50.0852 202.592 49.5568 202.899 48.892H202.967V50H203.973V43.4545H202.967V47.3239ZM208.662 43.4545H207.264V41.8864H206.258V43.4545H205.27V44.3068H206.258V48.3977C206.258 49.5398 207.179 50.0852 208.031 50.0852C208.406 50.0852 208.645 50.017 208.781 49.9659L208.576 49.0625C208.491 49.0795 208.355 49.1136 208.133 49.1136C207.69 49.1136 207.264 48.9773 207.264 48.125V44.3068H208.662V43.4545ZM212.848 50.1364C214.178 50.1364 215.15 49.4716 215.456 48.483L214.485 48.2102C214.229 48.892 213.637 49.233 212.848 49.233C211.668 49.233 210.854 48.4702 210.807 47.0682H215.559V46.642C215.559 44.2045 214.11 43.3693 212.746 43.3693C210.973 43.3693 209.797 44.767 209.797 46.7784C209.797 48.7898 210.956 50.1364 212.848 50.1364ZM210.807 46.1989C210.875 45.1804 211.596 44.2727 212.746 44.2727C213.837 44.2727 214.536 45.0909 214.536 46.1989H210.807ZM221.725 44.9205C221.409 43.9915 220.702 43.3693 219.407 43.3693C218.026 43.3693 217.003 44.1534 217.003 45.2614C217.003 46.1648 217.54 46.7699 218.742 47.0511L219.833 47.3068C220.493 47.4602 220.804 47.7756 220.804 48.2273C220.804 48.7898 220.208 49.25 219.27 49.25C218.448 49.25 217.932 48.8963 217.753 48.1932L216.799 48.4318C217.033 49.544 217.949 50.1364 219.287 50.1364C220.809 50.1364 221.844 49.3054 221.844 48.1761C221.844 47.2642 221.273 46.6889 220.105 46.4034L219.134 46.1648C218.358 45.973 218.009 45.7131 218.009 45.2102C218.009 44.6477 218.605 44.2386 219.407 44.2386C220.284 44.2386 220.647 44.7244 220.821 45.1761L221.725 44.9205Z" fill="white"/>
</svg>
